<?xml version="1.0" encoding="UTF-8" standalone="no"?>
<!DOCTYPE svg PUBLIC "-//W3C//DTD SVG 1.1//EN"
 "http://www.w3.org/Graphics/SVG/1.1/DTD/svg11.dtd">
<!-- Generated by graphviz version 2.43.0 (0)
 -->
<!-- Title: G Pages: 1 -->
<svg width="357pt" height="247pt"
 viewBox="0.00 0.00 357.00 247.00" xmlns="http://www.w3.org/2000/svg" xmlns:xlink="http://www.w3.org/1999/xlink">
<g id="graph0" class="graph" transform="scale(1 1) rotate(0) translate(4 243)">
<title>G</title>
<polygon fill="white" stroke="transparent" points="-4,4 -4,-243 353,-243 353,4 -4,4"/>
<g id="clust1" class="cluster">
<title>cluster_G</title>
<path fill="#808080" fill-opacity="0.094118" stroke="black" d="M11.74,-0.14C11.74,-0.14 336.74,-0.14 336.74,-0.14 342.74,-0.14 348.74,-6.14 348.74,-12.14 348.74,-12.14 348.74,-227.14 348.74,-227.14 348.74,-233.14 342.74,-239.14 336.74,-239.14 336.74,-239.14 11.74,-239.14 11.74,-239.14 5.74,-239.14 -0.26,-233.14 -0.26,-227.14 -0.26,-227.14 -0.26,-12.14 -0.26,-12.14 -0.26,-6.14 5.74,-0.14 11.74,-0.14"/>
</g>
<g id="clust2" class="cluster">
<title>cluster_happy</title>
<path fill="#808080" fill-opacity="0.094118" stroke="black" d="M19.48,-8.28C19.48,-8.28 278.48,-8.28 278.48,-8.28 284.48,-8.28 290.48,-14.28 290.48,-20.28 290.48,-20.28 290.48,-159.28 290.48,-159.28 290.48,-165.28 284.48,-171.28 278.48,-171.28 278.48,-171.28 19.48,-171.28 19.48,-171.28 13.48,-171.28 7.48,-165.28 7.48,-159.28 7.48,-159.28 7.48,-20.28 7.48,-20.28 7.48,-14.28 13.48,-8.28 19.48,-8.28"/>
<text text-anchor="middle" x="148.98" y="-156.08" font-family="Times,serif" font-size="14.00">happy</text>
</g>
<!-- happy -->
<g id="node1" class="node">
<title>happy</title>
<ellipse fill="#ffffff" fill-opacity="0.698039" stroke="black" cx="301.98" cy="-212.78" rx="38.99" ry="18"/>
<text text-anchor="middle" x="301.98" y="-209.08" font-family="Times,serif" font-size="14.00" fill="#000000">happy</text>
</g>
<!-- happy__sing -->
<g id="node3" class="node">
<title>happy__sing</title>
<ellipse fill="#fecccc" fill-opacity="0.698039" stroke="black" cx="208.71" cy="-112.92" rx="73.58" ry="26.74"/>
<text text-anchor="middle" x="208.71" y="-116.72" font-family="Times,serif" font-size="14.00" fill="#000000">sing</text>
<text text-anchor="middle" x="208.71" y="-101.72" font-family="Times,serif" font-size="14.00" fill="#000000">(happy.py:5)</text>
</g>
<!-- happy&#45;&gt;happy__sing -->
<g id="edge2" class="edge">
<title>happy&#45;&gt;happy__sing</title>
<path fill="none" stroke="#000000" d="M286.16,-195.84C273.45,-182.23 255.21,-162.71 239.63,-146.02"/>
<polygon fill="#000000" stroke="#000000" points="242.07,-143.51 232.68,-138.59 236.95,-148.29 242.07,-143.51"/>
</g>
<!-- happy__happy -->
<g id="node2" class="node">
<title>happy__happy</title>
<ellipse fill="#fecccc" fill-opacity="0.698039" stroke="black" cx="88.71" cy="-42.92" rx="73.58" ry="26.74"/>
<text text-anchor="middle" x="88.71" y="-46.72" font-family="Times,serif" font-size="14.00" fill="#000000">happy</text>
<text text-anchor="middle" x="88.71" y="-31.72" font-family="Times,serif" font-size="14.00" fill="#000000">(happy.py:2)</text>
</g>
<!-- happy__sing&#45;&gt;happy__happy -->
<g id="edge1" class="edge">
<title>happy__sing&#45;&gt;happy__happy</title>
<path fill="none" stroke="#000000" d="M169.42,-90C159.06,-83.96 147.76,-77.37 136.99,-71.08"/>
<polygon fill="#000000" stroke="#000000" points="138.5,-67.91 128.1,-65.89 134.97,-73.96 138.5,-67.91"/>
</g>
</g>
</svg>
