<?xml version="1.0" encoding="UTF-8" standalone="no"?>
<!DOCTYPE svg PUBLIC "-//W3C//DTD SVG 1.1//EN"
 "http://www.w3.org/Graphics/SVG/1.1/DTD/svg11.dtd">
<!-- Generated by graphviz version 2.43.0 (0)
 -->
<!-- Title: G Pages: 1 -->
<svg width="2381pt" height="721pt"
 viewBox="0.00 0.00 2381.00 721.18" xmlns="http://www.w3.org/2000/svg" xmlns:xlink="http://www.w3.org/1999/xlink">
<g id="graph0" class="graph" transform="scale(1 1) rotate(0) translate(4 717.18)">
<title>G</title>
<polygon fill="white" stroke="transparent" points="-4,4 -4,-717.18 2377,-717.18 2377,4 -4,4"/>
<g id="clust1" class="cluster">
<title>cluster_G</title>
<path fill="#808080" fill-opacity="0.094118" stroke="black" d="M20,-8C20,-8 2353,-8 2353,-8 2359,-8 2365,-14 2365,-20 2365,-20 2365,-693.18 2365,-693.18 2365,-699.18 2359,-705.18 2353,-705.18 2353,-705.18 20,-705.18 20,-705.18 14,-705.18 8,-699.18 8,-693.18 8,-693.18 8,-20 8,-20 8,-14 14,-8 20,-8"/>
</g>
<g id="clust2" class="cluster">
<title>cluster_visualize_c_memory</title>
<path fill="#808080" fill-opacity="0.094118" stroke="black" d="M28,-16C28,-16 1707,-16 1707,-16 1713,-16 1719,-22 1719,-28 1719,-28 1719,-641.18 1719,-641.18 1719,-647.18 1713,-653.18 1707,-653.18 1707,-653.18 28,-653.18 28,-653.18 22,-653.18 16,-647.18 16,-641.18 16,-641.18 16,-28 16,-28 16,-22 22,-16 28,-16"/>
<text text-anchor="middle" x="867.5" y="-637.98" font-family="Times,serif" font-size="14.00">visualize_c_memory</text>
</g>
<g id="clust3" class="cluster">
<title>cluster_visualize_c_memory__MemoryPrinter</title>
<path fill="#808080" fill-opacity="0.094118" stroke="black" d="M1739,-467.7C1739,-467.7 2345,-467.7 2345,-467.7 2351,-467.7 2357,-473.7 2357,-479.7 2357,-479.7 2357,-548.44 2357,-548.44 2357,-554.44 2351,-560.44 2345,-560.44 2345,-560.44 1739,-560.44 1739,-560.44 1733,-560.44 1727,-554.44 1727,-548.44 1727,-548.44 1727,-479.7 1727,-479.7 1727,-473.7 1733,-467.7 1739,-467.7"/>
<text text-anchor="middle" x="2042" y="-545.24" font-family="Times,serif" font-size="14.00">visualize_c_memory.MemoryPrinter</text>
</g>
<g id="clust4" class="cluster">
<title>cluster_visualize_c_memory__dot_of_pointers</title>
<path fill="#808080" fill-opacity="0.094118" stroke="black" d="M1739,-195.48C1739,-195.48 2043,-195.48 2043,-195.48 2049,-195.48 2055,-201.48 2055,-207.48 2055,-207.48 2055,-276.22 2055,-276.22 2055,-282.22 2049,-288.22 2043,-288.22 2043,-288.22 1739,-288.22 1739,-288.22 1733,-288.22 1727,-282.22 1727,-276.22 1727,-276.22 1727,-207.48 1727,-207.48 1727,-201.48 1733,-195.48 1739,-195.48"/>
<text text-anchor="middle" x="1891" y="-273.02" font-family="Times,serif" font-size="14.00">visualize_c_memory.dot_of_pointers</text>
</g>
<!-- visualize_c_memory -->
<g id="node1" class="node">
<title>visualize_c_memory</title>
<ellipse fill="#ffffff" fill-opacity="0.698039" stroke="black" cx="1562" cy="-679.18" rx="102.88" ry="18"/>
<text text-anchor="middle" x="1562" y="-675.48" font-family="Times,serif" font-size="14.00" fill="#000000">visualize_c_memory</text>
</g>
<!-- visualize_c_memory__lookup_printer -->
<g id="node14" class="node">
<title>visualize_c_memory__lookup_printer</title>
<ellipse fill="#fecccc" fill-opacity="0.698039" stroke="black" cx="1562" cy="-595.31" rx="149.4" ry="26.74"/>
<text text-anchor="middle" x="1562" y="-599.11" font-family="Times,serif" font-size="14.00" fill="#000000">lookup_printer</text>
<text text-anchor="middle" x="1562" y="-584.11" font-family="Times,serif" font-size="14.00" fill="#000000">(visualize_c_memory.py:18)</text>
</g>
<!-- visualize_c_memory&#45;&gt;visualize_c_memory__lookup_printer -->
<g id="edge1" class="edge">
<title>visualize_c_memory&#45;&gt;visualize_c_memory__lookup_printer</title>
<path fill="none" stroke="#000000" d="M1562,-660.82C1562,-652.53 1562,-642.28 1562,-632.41"/>
<polygon fill="#000000" stroke="#000000" points="1565.5,-632.36 1562,-622.36 1558.5,-632.36 1565.5,-632.36"/>
</g>
<!-- visualize_c_memory__MemoryPrinter -->
<g id="node2" class="node">
<title>visualize_c_memory__MemoryPrinter</title>
<ellipse fill="#fecccc" fill-opacity="0.698039" stroke="black" cx="1562" cy="-502.57" rx="149.4" ry="26.74"/>
<text text-anchor="middle" x="1562" y="-506.37" font-family="Times,serif" font-size="14.00" fill="#000000">MemoryPrinter</text>
<text text-anchor="middle" x="1562" y="-491.37" font-family="Times,serif" font-size="14.00" fill="#000000">(visualize_c_memory.py:12)</text>
</g>
<!-- visualize_c_memory__address_within_rec -->
<g id="node3" class="node">
<title>visualize_c_memory__address_within_rec</title>
<ellipse fill="#fecccc" fill-opacity="0.698039" stroke="black" cx="514" cy="-50.87" rx="155.63" ry="26.74"/>
<text text-anchor="middle" x="514" y="-54.67" font-family="Times,serif" font-size="14.00" fill="#000000">address_within_rec</text>
<text text-anchor="middle" x="514" y="-39.67" font-family="Times,serif" font-size="14.00" fill="#000000">(visualize_c_memory.py:192)</text>
</g>
<!-- visualize_c_memory__dot_of_heap -->
<g id="node4" class="node">
<title>visualize_c_memory__dot_of_heap</title>
<ellipse fill="#fecccc" fill-opacity="0.698039" stroke="black" cx="305" cy="-412.83" rx="155.63" ry="26.74"/>
<text text-anchor="middle" x="305" y="-416.63" font-family="Times,serif" font-size="14.00" fill="#000000">dot_of_heap</text>
<text text-anchor="middle" x="305" y="-401.63" font-family="Times,serif" font-size="14.00" fill="#000000">(visualize_c_memory.py:112)</text>
</g>
<!-- visualize_c_memory__rows_of_rec -->
<g id="node19" class="node">
<title>visualize_c_memory__rows_of_rec</title>
<ellipse fill="#fecccc" fill-opacity="0.698039" stroke="black" cx="509" cy="-323.09" rx="155.63" ry="26.74"/>
<text text-anchor="middle" x="509" y="-326.89" font-family="Times,serif" font-size="14.00" fill="#000000">rows_of_rec</text>
<text text-anchor="middle" x="509" y="-311.89" font-family="Times,serif" font-size="14.00" fill="#000000">(visualize_c_memory.py:157)</text>
</g>
<!-- visualize_c_memory__dot_of_heap&#45;&gt;visualize_c_memory__rows_of_rec -->
<g id="edge15" class="edge">
<title>visualize_c_memory__dot_of_heap&#45;&gt;visualize_c_memory__rows_of_rec</title>
<path fill="none" stroke="#000000" d="M361.01,-387.74C386.55,-376.76 416.94,-363.68 443.53,-352.25"/>
<polygon fill="#000000" stroke="#000000" points="444.95,-355.45 452.76,-348.28 442.19,-349.02 444.95,-355.45"/>
</g>
<!-- visualize_c_memory__table_of_rows -->
<g id="node21" class="node">
<title>visualize_c_memory__table_of_rows</title>
<ellipse fill="#fecccc" fill-opacity="0.698039" stroke="black" cx="180" cy="-323.09" rx="155.63" ry="26.74"/>
<text text-anchor="middle" x="180" y="-326.89" font-family="Times,serif" font-size="14.00" fill="#000000">table_of_rows</text>
<text text-anchor="middle" x="180" y="-311.89" font-family="Times,serif" font-size="14.00" fill="#000000">(visualize_c_memory.py:124)</text>
</g>
<!-- visualize_c_memory__dot_of_heap&#45;&gt;visualize_c_memory__table_of_rows -->
<g id="edge14" class="edge">
<title>visualize_c_memory__dot_of_heap&#45;&gt;visualize_c_memory__table_of_rows</title>
<path fill="none" stroke="#000000" d="M268.84,-386.45C254.98,-376.72 239,-365.51 224.45,-355.29"/>
<polygon fill="#000000" stroke="#000000" points="226.27,-352.29 216.07,-349.41 222.25,-358.02 226.27,-352.29"/>
</g>
<!-- visualize_c_memory__dot_of_pointers -->
<g id="node5" class="node">
<title>visualize_c_memory__dot_of_pointers</title>
<ellipse fill="#fecccc" fill-opacity="0.698039" stroke="black" cx="856" cy="-323.09" rx="155.63" ry="26.74"/>
<text text-anchor="middle" x="856" y="-326.89" font-family="Times,serif" font-size="14.00" fill="#000000">dot_of_pointers</text>
<text text-anchor="middle" x="856" y="-311.89" font-family="Times,serif" font-size="14.00" fill="#000000">(visualize_c_memory.py:143)</text>
</g>
<!-- visualize_c_memory__find_pointers -->
<g id="node7" class="node">
<title>visualize_c_memory__find_pointers</title>
<ellipse fill="#fecccc" fill-opacity="0.698039" stroke="black" cx="867" cy="-230.35" rx="155.63" ry="26.74"/>
<text text-anchor="middle" x="867" y="-234.15" font-family="Times,serif" font-size="14.00" fill="#000000">find_pointers</text>
<text text-anchor="middle" x="867" y="-219.15" font-family="Times,serif" font-size="14.00" fill="#000000">(visualize_c_memory.py:225)</text>
</g>
<!-- visualize_c_memory__dot_of_pointers&#45;&gt;visualize_c_memory__find_pointers -->
<g id="edge18" class="edge">
<title>visualize_c_memory__dot_of_pointers&#45;&gt;visualize_c_memory__find_pointers</title>
<path fill="none" stroke="#000000" d="M859.18,-295.84C860.26,-286.93 861.49,-276.8 862.65,-267.26"/>
<polygon fill="#000000" stroke="#000000" points="866.13,-267.57 863.86,-257.22 859.19,-266.73 866.13,-267.57"/>
</g>
<!-- visualize_c_memory__lookup_address -->
<g id="node11" class="node">
<title>visualize_c_memory__lookup_address</title>
<ellipse fill="#fecccc" fill-opacity="0.698039" stroke="black" cx="514" cy="-230.35" rx="155.63" ry="26.74"/>
<text text-anchor="middle" x="514" y="-234.15" font-family="Times,serif" font-size="14.00" fill="#000000">lookup_address</text>
<text text-anchor="middle" x="514" y="-219.15" font-family="Times,serif" font-size="14.00" fill="#000000">(visualize_c_memory.py:198)</text>
</g>
<!-- visualize_c_memory__dot_of_pointers&#45;&gt;visualize_c_memory__lookup_address -->
<g id="edge17" class="edge">
<title>visualize_c_memory__dot_of_pointers&#45;&gt;visualize_c_memory__lookup_address</title>
<path fill="none" stroke="#000000" d="M759.2,-302C740.17,-297.71 720.41,-293.02 702,-288.22 666.56,-278.98 627.77,-267.48 594.68,-257.25"/>
<polygon fill="#000000" stroke="#000000" points="595.64,-253.88 585.05,-254.26 593.56,-260.57 595.64,-253.88"/>
</g>
<!-- visualize_c_memory__dot_of_pointers__anchor_of_rec -->
<g id="node25" class="node">
<title>visualize_c_memory__dot_of_pointers__anchor_of_rec</title>
<ellipse fill="#ff9999" fill-opacity="0.698039" stroke="black" cx="1891" cy="-230.35" rx="155.63" ry="26.74"/>
<text text-anchor="middle" x="1891" y="-234.15" font-family="Times,serif" font-size="14.00" fill="#000000">anchor_of_rec</text>
<text text-anchor="middle" x="1891" y="-219.15" font-family="Times,serif" font-size="14.00" fill="#000000">(visualize_c_memory.py:145)</text>
</g>
<!-- visualize_c_memory__dot_of_pointers&#45;&gt;visualize_c_memory__dot_of_pointers__anchor_of_rec -->
<g id="edge16" class="edge">
<title>visualize_c_memory__dot_of_pointers&#45;&gt;visualize_c_memory__dot_of_pointers__anchor_of_rec</title>
<path fill="none" stroke="#000000" d="M961.15,-303.19C980.66,-300.34 1000.9,-297.83 1020,-296.22 1097.84,-289.67 1646,-301.35 1723,-288.22 1757.51,-282.34 1794.51,-270.46 1824.97,-259.08"/>
<polygon fill="#000000" stroke="#000000" points="1826.52,-262.23 1834.62,-255.41 1824.03,-255.69 1826.52,-262.23"/>
</g>
<!-- visualize_c_memory__dot_of_stack -->
<g id="node6" class="node">
<title>visualize_c_memory__dot_of_stack</title>
<ellipse fill="#fecccc" fill-opacity="0.698039" stroke="black" cx="634" cy="-412.83" rx="155.63" ry="26.74"/>
<text text-anchor="middle" x="634" y="-416.63" font-family="Times,serif" font-size="14.00" fill="#000000">dot_of_stack</text>
<text text-anchor="middle" x="634" y="-401.63" font-family="Times,serif" font-size="14.00" fill="#000000">(visualize_c_memory.py:101)</text>
</g>
<!-- visualize_c_memory__dot_of_stack&#45;&gt;visualize_c_memory__rows_of_rec -->
<g id="edge13" class="edge">
<title>visualize_c_memory__dot_of_stack&#45;&gt;visualize_c_memory__rows_of_rec</title>
<path fill="none" stroke="#000000" d="M597.84,-386.45C583.98,-376.72 568,-365.51 553.45,-355.29"/>
<polygon fill="#000000" stroke="#000000" points="555.27,-352.29 545.07,-349.41 551.25,-358.02 555.27,-352.29"/>
</g>
<!-- visualize_c_memory__dot_of_stack&#45;&gt;visualize_c_memory__table_of_rows -->
<g id="edge12" class="edge">
<title>visualize_c_memory__dot_of_stack&#45;&gt;visualize_c_memory__table_of_rows</title>
<path fill="none" stroke="#000000" d="M533.24,-392.36C461.36,-378.47 364.73,-359.79 290.7,-345.48"/>
<polygon fill="#000000" stroke="#000000" points="291.35,-342.05 280.87,-343.58 290.02,-348.92 291.35,-342.05"/>
</g>
<!-- visualize_c_memory__find_pointers_rec -->
<g id="node8" class="node">
<title>visualize_c_memory__find_pointers_rec</title>
<ellipse fill="#fecccc" fill-opacity="0.698039" stroke="black" cx="867" cy="-140.61" rx="155.63" ry="26.74"/>
<text text-anchor="middle" x="867" y="-144.41" font-family="Times,serif" font-size="14.00" fill="#000000">find_pointers_rec</text>
<text text-anchor="middle" x="867" y="-129.41" font-family="Times,serif" font-size="14.00" fill="#000000">(visualize_c_memory.py:229)</text>
</g>
<!-- visualize_c_memory__find_pointers&#45;&gt;visualize_c_memory__find_pointers_rec -->
<g id="edge25" class="edge">
<title>visualize_c_memory__find_pointers&#45;&gt;visualize_c_memory__find_pointers_rec</title>
<path fill="none" stroke="#000000" d="M867,-203.03C867,-195.06 867,-186.17 867,-177.68"/>
<polygon fill="#000000" stroke="#000000" points="870.5,-177.61 867,-167.61 863.5,-177.61 870.5,-177.61"/>
</g>
<!-- visualize_c_memory__find_pointers_rec&#45;&gt;visualize_c_memory__find_pointers_rec -->
<g id="edge26" class="edge">
<title>visualize_c_memory__find_pointers_rec&#45;&gt;visualize_c_memory__find_pointers_rec</title>
<path fill="none" stroke="#000000" d="M991.81,-156.71C1019.97,-155.26 1040.56,-149.89 1040.56,-140.61 1040.56,-132.49 1024.8,-127.37 1001.99,-125.24"/>
<polygon fill="#000000" stroke="#000000" points="1002.04,-121.73 991.81,-124.51 1001.54,-128.72 1002.04,-121.73"/>
</g>
<!-- visualize_c_memory__format_pointer -->
<g id="node9" class="node">
<title>visualize_c_memory__format_pointer</title>
<ellipse fill="#fecccc" fill-opacity="0.698039" stroke="black" cx="1381" cy="-140.61" rx="155.63" ry="26.74"/>
<text text-anchor="middle" x="1381" y="-144.41" font-family="Times,serif" font-size="14.00" fill="#000000">format_pointer</text>
<text text-anchor="middle" x="1381" y="-129.41" font-family="Times,serif" font-size="14.00" fill="#000000">(visualize_c_memory.py:237)</text>
</g>
<!-- visualize_c_memory__infer_heap_types -->
<g id="node10" class="node">
<title>visualize_c_memory__infer_heap_types</title>
<ellipse fill="#fecccc" fill-opacity="0.698039" stroke="black" cx="1186" cy="-412.83" rx="155.63" ry="26.74"/>
<text text-anchor="middle" x="1186" y="-416.63" font-family="Times,serif" font-size="14.00" fill="#000000">infer_heap_types</text>
<text text-anchor="middle" x="1186" y="-401.63" font-family="Times,serif" font-size="14.00" fill="#000000">(visualize_c_memory.py:285)</text>
</g>
<!-- visualize_c_memory__infer_heap_types&#45;&gt;visualize_c_memory__infer_heap_types -->
<g id="edge29" class="edge">
<title>visualize_c_memory__infer_heap_types&#45;&gt;visualize_c_memory__infer_heap_types</title>
<path fill="none" stroke="#000000" d="M1310.81,-428.93C1338.97,-427.48 1359.56,-422.11 1359.56,-412.83 1359.56,-404.71 1343.8,-399.59 1320.99,-397.46"/>
<polygon fill="#000000" stroke="#000000" points="1321.04,-393.96 1310.81,-396.73 1320.54,-400.94 1321.04,-393.96"/>
</g>
<!-- visualize_c_memory__lookup_pointer -->
<g id="node13" class="node">
<title>visualize_c_memory__lookup_pointer</title>
<ellipse fill="#fecccc" fill-opacity="0.698039" stroke="black" cx="1185" cy="-323.09" rx="155.63" ry="26.74"/>
<text text-anchor="middle" x="1185" y="-326.89" font-family="Times,serif" font-size="14.00" fill="#000000">lookup_pointer</text>
<text text-anchor="middle" x="1185" y="-311.89" font-family="Times,serif" font-size="14.00" fill="#000000">(visualize_c_memory.py:217)</text>
</g>
<!-- visualize_c_memory__infer_heap_types&#45;&gt;visualize_c_memory__lookup_pointer -->
<g id="edge30" class="edge">
<title>visualize_c_memory__infer_heap_types&#45;&gt;visualize_c_memory__lookup_pointer</title>
<path fill="none" stroke="#000000" d="M1185.7,-385.51C1185.61,-377.54 1185.51,-368.65 1185.41,-360.16"/>
<polygon fill="#000000" stroke="#000000" points="1188.91,-360.05 1185.3,-350.09 1181.91,-360.13 1188.91,-360.05"/>
</g>
<!-- visualize_c_memory__rec_of_value -->
<g id="node17" class="node">
<title>visualize_c_memory__rec_of_value</title>
<ellipse fill="#fecccc" fill-opacity="0.698039" stroke="black" cx="1208" cy="-230.35" rx="155.63" ry="26.74"/>
<text text-anchor="middle" x="1208" y="-234.15" font-family="Times,serif" font-size="14.00" fill="#000000">rec_of_value</text>
<text text-anchor="middle" x="1208" y="-219.15" font-family="Times,serif" font-size="14.00" fill="#000000">(visualize_c_memory.py:354)</text>
</g>
<!-- visualize_c_memory__infer_heap_types&#45;&gt;visualize_c_memory__rec_of_value -->
<g id="edge28" class="edge">
<title>visualize_c_memory__infer_heap_types&#45;&gt;visualize_c_memory__rec_of_value</title>
<path fill="none" stroke="#000000" d="M1291.48,-393.04C1314.41,-383.87 1335.98,-370.23 1350,-349.96 1363.59,-330.32 1362.91,-316.31 1350,-296.22 1338.98,-279.07 1322.19,-266.4 1303.96,-257.06"/>
<polygon fill="#000000" stroke="#000000" points="1305.44,-253.89 1294.91,-252.73 1302.42,-260.21 1305.44,-253.89"/>
</g>
<!-- visualize_c_memory__lookup_address_rec -->
<g id="node12" class="node">
<title>visualize_c_memory__lookup_address_rec</title>
<ellipse fill="#fecccc" fill-opacity="0.698039" stroke="black" cx="514" cy="-140.61" rx="155.63" ry="26.74"/>
<text text-anchor="middle" x="514" y="-144.41" font-family="Times,serif" font-size="14.00" fill="#000000">lookup_address_rec</text>
<text text-anchor="middle" x="514" y="-129.41" font-family="Times,serif" font-size="14.00" fill="#000000">(visualize_c_memory.py:205)</text>
</g>
<!-- visualize_c_memory__lookup_address&#45;&gt;visualize_c_memory__lookup_address_rec -->
<g id="edge21" class="edge">
<title>visualize_c_memory__lookup_address&#45;&gt;visualize_c_memory__lookup_address_rec</title>
<path fill="none" stroke="#000000" d="M514,-203.03C514,-195.06 514,-186.17 514,-177.68"/>
<polygon fill="#000000" stroke="#000000" points="517.5,-177.61 514,-167.61 510.5,-177.61 517.5,-177.61"/>
</g>
<!-- visualize_c_memory__lookup_address_rec&#45;&gt;visualize_c_memory__address_within_rec -->
<g id="edge22" class="edge">
<title>visualize_c_memory__lookup_address_rec&#45;&gt;visualize_c_memory__address_within_rec</title>
<path fill="none" stroke="#000000" d="M514,-113.29C514,-105.32 514,-96.43 514,-87.94"/>
<polygon fill="#000000" stroke="#000000" points="517.5,-87.87 514,-77.87 510.5,-87.87 517.5,-87.87"/>
</g>
<!-- visualize_c_memory__lookup_address_rec&#45;&gt;visualize_c_memory__lookup_address_rec -->
<g id="edge23" class="edge">
<title>visualize_c_memory__lookup_address_rec&#45;&gt;visualize_c_memory__lookup_address_rec</title>
<path fill="none" stroke="#000000" d="M638.81,-156.71C666.97,-155.26 687.56,-149.89 687.56,-140.61 687.56,-132.49 671.8,-127.37 648.99,-125.24"/>
<polygon fill="#000000" stroke="#000000" points="649.04,-121.73 638.81,-124.51 648.54,-128.72 649.04,-121.73"/>
</g>
<!-- visualize_c_memory__lookup_pointer&#45;&gt;visualize_c_memory__find_pointers -->
<g id="edge24" class="edge">
<title>visualize_c_memory__lookup_pointer&#45;&gt;visualize_c_memory__find_pointers</title>
<path fill="none" stroke="#000000" d="M1093.06,-301.28C1076.35,-297.17 1059.11,-292.74 1043,-288.22 1010.5,-279.11 975.01,-267.89 944.47,-257.83"/>
<polygon fill="#000000" stroke="#000000" points="945.33,-254.43 934.74,-254.61 943.13,-261.08 945.33,-254.43"/>
</g>
<!-- visualize_c_memory__lookup_printer&#45;&gt;visualize_c_memory__MemoryPrinter -->
<g id="edge3" class="edge">
<title>visualize_c_memory__lookup_printer&#45;&gt;visualize_c_memory__MemoryPrinter</title>
<path fill="none" stroke="#000000" d="M1562,-568.06C1562,-559.15 1562,-549.02 1562,-539.48"/>
<polygon fill="#000000" stroke="#000000" points="1565.5,-539.44 1562,-529.44 1558.5,-539.44 1565.5,-539.44"/>
</g>
<!-- visualize_c_memory__MemoryPrinter____init__ -->
<g id="node23" class="node">
<title>visualize_c_memory__MemoryPrinter____init__</title>
<ellipse fill="#ff9999" fill-opacity="0.698039" stroke="black" cx="2200" cy="-502.57" rx="149.4" ry="26.74"/>
<text text-anchor="middle" x="2200" y="-506.37" font-family="Times,serif" font-size="14.00" fill="#000000">__init__</text>
<text text-anchor="middle" x="2200" y="-491.37" font-family="Times,serif" font-size="14.00" fill="#000000">(visualize_c_memory.py:13)</text>
</g>
<!-- visualize_c_memory__lookup_printer&#45;&gt;visualize_c_memory__MemoryPrinter____init__ -->
<g id="edge4" class="edge">
<title>visualize_c_memory__lookup_printer&#45;&gt;visualize_c_memory__MemoryPrinter____init__</title>
<path fill="none" stroke="#000000" d="M1706.57,-588.48C1824.12,-582.92 1980.23,-573.47 2042,-560.44 2073.52,-553.79 2107.27,-542.28 2135.45,-531.35"/>
<polygon fill="#000000" stroke="#000000" points="2136.76,-534.6 2144.78,-527.68 2134.2,-528.09 2136.76,-534.6"/>
</g>
<!-- visualize_c_memory__rec_of_frame -->
<g id="node15" class="node">
<title>visualize_c_memory__rec_of_frame</title>
<ellipse fill="#fecccc" fill-opacity="0.698039" stroke="black" cx="1535" cy="-323.09" rx="155.63" ry="26.74"/>
<text text-anchor="middle" x="1535" y="-326.89" font-family="Times,serif" font-size="14.00" fill="#000000">rec_of_frame</text>
<text text-anchor="middle" x="1535" y="-311.89" font-family="Times,serif" font-size="14.00" fill="#000000">(visualize_c_memory.py:330)</text>
</g>
<!-- visualize_c_memory__rec_of_frame&#45;&gt;visualize_c_memory__rec_of_value -->
<g id="edge32" class="edge">
<title>visualize_c_memory__rec_of_frame&#45;&gt;visualize_c_memory__rec_of_value</title>
<path fill="none" stroke="#000000" d="M1442.31,-301.51C1424.87,-297.33 1406.84,-292.81 1390,-288.22 1356.14,-278.99 1319.1,-267.65 1287.33,-257.53"/>
<polygon fill="#000000" stroke="#000000" points="1288.24,-254.15 1277.65,-254.43 1286.11,-260.81 1288.24,-254.15"/>
</g>
<!-- visualize_c_memory__rec_of_heap -->
<g id="node16" class="node">
<title>visualize_c_memory__rec_of_heap</title>
<ellipse fill="#fecccc" fill-opacity="0.698039" stroke="black" cx="1555" cy="-230.35" rx="155.63" ry="26.74"/>
<text text-anchor="middle" x="1555" y="-234.15" font-family="Times,serif" font-size="14.00" fill="#000000">rec_of_heap</text>
<text text-anchor="middle" x="1555" y="-219.15" font-family="Times,serif" font-size="14.00" fill="#000000">(visualize_c_memory.py:240)</text>
</g>
<!-- visualize_c_memory__rec_of_heap&#45;&gt;visualize_c_memory__format_pointer -->
<g id="edge27" class="edge">
<title>visualize_c_memory__rec_of_heap&#45;&gt;visualize_c_memory__format_pointer</title>
<path fill="none" stroke="#000000" d="M1506.07,-204.68C1485.22,-194.17 1460.75,-181.82 1439,-170.86"/>
<polygon fill="#000000" stroke="#000000" points="1440.37,-167.63 1429.87,-166.25 1437.22,-173.88 1440.37,-167.63"/>
</g>
<!-- visualize_c_memory__rec_of_value&#45;&gt;visualize_c_memory__format_pointer -->
<g id="edge33" class="edge">
<title>visualize_c_memory__rec_of_value&#45;&gt;visualize_c_memory__format_pointer</title>
<path fill="none" stroke="#000000" d="M1256.65,-204.68C1277.38,-194.17 1301.71,-181.82 1323.33,-170.86"/>
<polygon fill="#000000" stroke="#000000" points="1325.08,-173.9 1332.42,-166.25 1321.91,-167.65 1325.08,-173.9"/>
</g>
<!-- visualize_c_memory__rec_of_value&#45;&gt;visualize_c_memory__rec_of_value -->
<g id="edge34" class="edge">
<title>visualize_c_memory__rec_of_value&#45;&gt;visualize_c_memory__rec_of_value</title>
<path fill="none" stroke="#000000" d="M1332.81,-246.45C1360.97,-245 1381.56,-239.63 1381.56,-230.35 1381.56,-222.23 1365.8,-217.11 1342.99,-214.98"/>
<polygon fill="#000000" stroke="#000000" points="1343.04,-211.47 1332.81,-214.25 1342.54,-218.46 1343.04,-211.47"/>
</g>
<!-- visualize_c_memory__recs_of_stack -->
<g id="node18" class="node">
<title>visualize_c_memory__recs_of_stack</title>
<ellipse fill="#fecccc" fill-opacity="0.698039" stroke="black" cx="1534" cy="-412.83" rx="155.63" ry="26.74"/>
<text text-anchor="middle" x="1534" y="-416.63" font-family="Times,serif" font-size="14.00" fill="#000000">recs_of_stack</text>
<text text-anchor="middle" x="1534" y="-401.63" font-family="Times,serif" font-size="14.00" fill="#000000">(visualize_c_memory.py:320)</text>
</g>
<!-- visualize_c_memory__recs_of_stack&#45;&gt;visualize_c_memory__rec_of_frame -->
<g id="edge31" class="edge">
<title>visualize_c_memory__recs_of_stack&#45;&gt;visualize_c_memory__rec_of_frame</title>
<path fill="none" stroke="#000000" d="M1534.3,-385.51C1534.39,-377.54 1534.49,-368.65 1534.59,-360.16"/>
<polygon fill="#000000" stroke="#000000" points="1538.09,-360.13 1534.7,-350.09 1531.09,-360.05 1538.09,-360.13"/>
</g>
<!-- visualize_c_memory__rows_of_rec&#45;&gt;visualize_c_memory__lookup_address -->
<g id="edge19" class="edge">
<title>visualize_c_memory__rows_of_rec&#45;&gt;visualize_c_memory__lookup_address</title>
<path fill="none" stroke="#000000" d="M510.45,-295.84C510.94,-286.93 511.5,-276.8 512.02,-267.26"/>
<polygon fill="#000000" stroke="#000000" points="515.52,-267.4 512.57,-257.22 508.53,-267.02 515.52,-267.4"/>
</g>
<!-- visualize_c_memory__rows_of_rec&#45;&gt;visualize_c_memory__rows_of_rec -->
<g id="edge20" class="edge">
<title>visualize_c_memory__rows_of_rec&#45;&gt;visualize_c_memory__rows_of_rec</title>
<path fill="none" stroke="#000000" d="M633.81,-339.19C661.97,-337.74 682.56,-332.37 682.56,-323.09 682.56,-314.97 666.8,-309.85 643.99,-307.72"/>
<polygon fill="#000000" stroke="#000000" points="644.04,-304.22 633.81,-306.99 643.54,-311.2 644.04,-304.22"/>
</g>
<!-- visualize_c_memory__svg_of_memory -->
<g id="node20" class="node">
<title>visualize_c_memory__svg_of_memory</title>
<ellipse fill="#fecccc" fill-opacity="0.698039" stroke="black" cx="1186" cy="-502.57" rx="149.4" ry="26.74"/>
<text text-anchor="middle" x="1186" y="-506.37" font-family="Times,serif" font-size="14.00" fill="#000000">svg_of_memory</text>
<text text-anchor="middle" x="1186" y="-491.37" font-family="Times,serif" font-size="14.00" fill="#000000">(visualize_c_memory.py:44)</text>
</g>
<!-- visualize_c_memory__svg_of_memory&#45;&gt;visualize_c_memory__dot_of_heap -->
<g id="edge11" class="edge">
<title>visualize_c_memory__svg_of_memory&#45;&gt;visualize_c_memory__dot_of_heap</title>
<path fill="none" stroke="#000000" d="M1047.58,-492.53C902.95,-482.4 669.61,-464.15 469,-439.7 454.33,-437.91 438.96,-435.8 423.75,-433.57"/>
<polygon fill="#000000" stroke="#000000" points="424.2,-430.1 413.8,-432.09 423.17,-437.03 424.2,-430.1"/>
</g>
<!-- visualize_c_memory__svg_of_memory&#45;&gt;visualize_c_memory__dot_of_pointers -->
<g id="edge9" class="edge">
<title>visualize_c_memory__svg_of_memory&#45;&gt;visualize_c_memory__dot_of_pointers</title>
<path fill="none" stroke="#000000" d="M1114.04,-479.03C1084.48,-468.65 1050.37,-455.17 1021,-439.7 975.21,-415.57 927.24,-380.72 894.89,-355.59"/>
<polygon fill="#000000" stroke="#000000" points="897.05,-352.84 887.02,-349.43 892.74,-358.35 897.05,-352.84"/>
</g>
<!-- visualize_c_memory__svg_of_memory&#45;&gt;visualize_c_memory__dot_of_stack -->
<g id="edge8" class="edge">
<title>visualize_c_memory__svg_of_memory&#45;&gt;visualize_c_memory__dot_of_stack</title>
<path fill="none" stroke="#000000" d="M1076.61,-484.18C984.18,-469.49 851.9,-448.47 756.05,-433.23"/>
<polygon fill="#000000" stroke="#000000" points="756.44,-429.75 746.01,-431.63 755.34,-436.66 756.44,-429.75"/>
</g>
<!-- visualize_c_memory__svg_of_memory&#45;&gt;visualize_c_memory__infer_heap_types -->
<g id="edge10" class="edge">
<title>visualize_c_memory__svg_of_memory&#45;&gt;visualize_c_memory__infer_heap_types</title>
<path fill="none" stroke="#000000" d="M1186,-475.25C1186,-467.28 1186,-458.39 1186,-449.9"/>
<polygon fill="#000000" stroke="#000000" points="1189.5,-449.83 1186,-439.83 1182.5,-449.83 1189.5,-449.83"/>
</g>
<!-- visualize_c_memory__svg_of_memory&#45;&gt;visualize_c_memory__rec_of_heap -->
<g id="edge7" class="edge">
<title>visualize_c_memory__svg_of_memory&#45;&gt;visualize_c_memory__rec_of_heap</title>
<path fill="none" stroke="#000000" d="M1292.54,-483.72C1327.94,-478.13 1367.61,-472.25 1404,-467.7 1436.67,-463.62 1676.71,-463.93 1699,-439.7 1742.17,-392.77 1734.68,-349.73 1700,-296.22 1688.79,-278.92 1671.75,-266.19 1653.26,-256.84"/>
<polygon fill="#000000" stroke="#000000" points="1654.62,-253.61 1644.08,-252.51 1651.64,-259.94 1654.62,-253.61"/>
</g>
<!-- visualize_c_memory__svg_of_memory&#45;&gt;visualize_c_memory__recs_of_stack -->
<g id="edge6" class="edge">
<title>visualize_c_memory__svg_of_memory&#45;&gt;visualize_c_memory__recs_of_stack</title>
<path fill="none" stroke="#000000" d="M1270.24,-480.33C1321.18,-467.49 1386.26,-451.08 1439.02,-437.78"/>
<polygon fill="#000000" stroke="#000000" points="1439.88,-441.17 1448.72,-435.33 1438.17,-434.38 1439.88,-441.17"/>
</g>
<!-- visualize_c_memory__visualize_memory -->
<g id="node22" class="node">
<title>visualize_c_memory__visualize_memory</title>
<ellipse fill="#fecccc" fill-opacity="0.698039" stroke="black" cx="1216" cy="-595.31" rx="149.4" ry="26.74"/>
<text text-anchor="middle" x="1216" y="-599.11" font-family="Times,serif" font-size="14.00" fill="#000000">visualize_memory</text>
<text text-anchor="middle" x="1216" y="-584.11" font-family="Times,serif" font-size="14.00" fill="#000000">(visualize_c_memory.py:31)</text>
</g>
<!-- visualize_c_memory__visualize_memory&#45;&gt;visualize_c_memory__svg_of_memory -->
<g id="edge5" class="edge">
<title>visualize_c_memory__visualize_memory&#45;&gt;visualize_c_memory__svg_of_memory</title>
<path fill="none" stroke="#000000" d="M1207.32,-568.06C1204.34,-559.05 1200.96,-548.81 1197.77,-539.18"/>
<polygon fill="#000000" stroke="#000000" points="1201.02,-537.84 1194.55,-529.44 1194.37,-540.04 1201.02,-537.84"/>
</g>
<!-- visualize_c_memory__MemoryPrinter__to_string -->
<g id="node24" class="node">
<title>visualize_c_memory__MemoryPrinter__to_string</title>
<ellipse fill="#ff9999" fill-opacity="0.698039" stroke="black" cx="1884" cy="-502.57" rx="149.4" ry="26.74"/>
<text text-anchor="middle" x="1884" y="-506.37" font-family="Times,serif" font-size="14.00" fill="#000000">to_string</text>
<text text-anchor="middle" x="1884" y="-491.37" font-family="Times,serif" font-size="14.00" fill="#000000">(visualize_c_memory.py:15)</text>
</g>
<!-- visualize_c_memory__MemoryPrinter__to_string&#45;&gt;visualize_c_memory__visualize_memory -->
<g id="edge2" class="edge">
<title>visualize_c_memory__MemoryPrinter__to_string&#45;&gt;visualize_c_memory__visualize_memory</title>
<path fill="none" stroke="#000000" d="M1829.3,-527.73C1798.68,-540.01 1759.44,-553.72 1723,-560.44 1653.26,-573.3 1474.68,-562.71 1404,-568.44 1381.97,-570.23 1358.58,-572.85 1336.06,-575.76"/>
<polygon fill="#000000" stroke="#000000" points="1335.58,-572.29 1326.12,-577.06 1336.49,-579.23 1335.58,-572.29"/>
</g>
</g>
</svg>
